<svg id="svg" version="1.1" xmlns="http://www.w3.org/2000/svg" xmlns:xlink="http://www.w3.org/1999/xlink" width="400" height="400" viewBox="0, 0, 400,400"><g id="svgg"><path id="path0" d="M63.086 144.297 C 58.075 145.529,54.257 149.385,52.933 154.555 C 52.399 156.640,52.337 161.189,52.431 191.261 L 52.539 225.586 53.481 227.930 C 54.770 231.136,58.318 234.683,61.523 235.972 L 63.867 236.914 99.023 237.025 C 122.320 237.099,135.080 236.997,136.849 236.724 C 142.854 235.795,147.143 232.024,148.613 226.379 C 149.352 223.543,149.527 160.337,148.809 155.910 C 147.873 150.143,143.957 145.754,138.492 144.349 C 135.389 143.551,66.314 143.503,63.086 144.297 M166.538 145.117 C 166.615 145.332,169.386 153.284,172.695 162.787 L 178.711 180.067 183.398 180.067 L 188.086 180.068 192.905 166.499 C 195.555 159.036,198.385 151.084,199.194 148.828 L 200.665 144.727 196.719 144.794 L 192.773 144.861 190.394 151.630 C 189.086 155.353,186.988 161.378,185.732 165.019 C 184.477 168.660,183.387 171.472,183.311 171.269 C 183.235 171.065,181.201 165.042,178.793 157.885 L 174.414 144.871 170.405 144.799 C 167.869 144.753,166.449 144.870,166.538 145.117 M210.079 145.703 C 209.874 146.240,207.101 153.887,203.917 162.695 C 200.732 171.504,198.000 179.025,197.844 179.409 C 197.582 180.056,197.853 180.098,201.574 179.995 L 205.587 179.883 206.113 178.320 C 206.402 177.461,206.919 176.007,207.261 175.089 L 207.884 173.419 214.542 173.526 L 221.200 173.633 222.369 176.855 L 223.539 180.078 227.395 180.078 C 229.515 180.078,231.250 179.975,231.250 179.850 C 231.250 179.534,227.754 169.749,223.236 157.422 C 221.149 151.729,219.273 146.598,219.066 146.021 C 218.491 144.413,210.676 144.136,210.079 145.703 M216.978 159.865 C 218.167 163.572,219.141 166.824,219.141 167.091 C 219.141 167.453,217.928 167.578,214.424 167.578 C 210.646 167.578,209.733 167.473,209.835 167.047 C 210.358 164.844,214.316 153.126,214.536 153.125 C 214.690 153.125,215.788 156.158,216.978 159.865 M133.215 159.473 C 135.576 160.665,136.711 163.199,135.978 165.642 C 135.364 167.693,96.292 207.252,93.748 208.399 C 90.553 209.840,90.550 209.838,77.081 196.362 C 63.775 183.050,63.786 183.065,64.806 179.660 C 65.592 177.035,68.891 175.270,71.319 176.174 C 71.947 176.408,76.770 180.899,82.038 186.155 L 91.614 195.710 109.577 177.698 C 129.973 157.245,129.511 157.601,133.215 159.473 M135.294 189.078 C 139.509 191.966,139.269 198.473,134.853 201.061 C 131.591 202.972,126.873 201.683,125.185 198.417 C 123.728 195.599,122.628 196.275,113.165 205.797 C 108.502 210.490,104.687 214.401,104.687 214.489 C 104.687 214.577,107.834 214.597,111.680 214.534 L 118.674 214.420 118.913 213.467 C 120.660 206.507,131.092 207.457,132.603 214.713 C 134.217 222.466,122.987 226.118,119.291 219.043 L 118.730 217.969 109.620 217.969 L 100.510 217.969 98.302 220.284 C 97.087 221.557,96.094 222.749,96.094 222.934 C 96.094 224.586,92.207 224.965,90.539 223.475 C 87.557 220.810,89.488 216.946,93.613 217.322 L 96.015 217.541 108.196 205.578 L 120.377 193.614 122.462 193.441 C 124.243 193.293,124.581 193.136,124.774 192.367 C 125.759 188.441,131.668 186.594,135.294 189.078 M174.590 188.794 C 162.552 192.169,165.038 210.286,177.539 210.286 C 180.912 210.286,183.384 209.254,185.157 207.102 C 186.643 205.299,186.650 205.337,184.628 203.946 L 182.928 202.776 182.082 203.921 C 179.523 207.382,174.070 206.891,172.148 203.027 C 168.589 195.874,177.148 188.607,181.947 194.708 L 182.712 195.681 184.422 194.863 C 185.363 194.414,186.202 193.983,186.288 193.906 C 186.373 193.829,185.986 193.076,185.429 192.234 C 183.535 189.372,178.373 187.734,174.590 188.794 M196.932 188.683 C 191.562 189.797,188.416 194.188,188.744 200.113 C 189.520 214.145,210.547 213.471,210.547 199.414 C 210.547 192.333,204.044 187.207,196.932 188.683 M240.592 188.645 C 233.715 189.989,233.406 197.488,240.117 200.179 C 246.827 202.870,247.761 203.825,245.545 205.731 C 243.900 207.146,241.042 206.785,238.406 204.830 L 237.164 203.908 235.965 205.364 C 234.470 207.177,234.465 207.119,236.230 208.286 C 242.095 212.159,249.789 210.333,250.608 204.875 C 251.134 201.364,249.193 199.274,243.715 197.449 C 240.201 196.279,239.068 195.200,239.840 193.757 C 240.768 192.024,243.746 191.837,246.345 193.350 L 247.572 194.065 249.021 192.580 L 250.471 191.096 248.771 190.101 C 246.080 188.528,243.521 188.072,240.592 188.645 M342.554 188.814 C 333.353 191.296,332.196 205.200,340.842 209.386 C 344.729 211.267,350.610 210.207,353.671 207.072 L 355.109 205.599 354.996 201.921 C 354.934 199.898,354.751 198.286,354.590 198.340 C 354.429 198.394,352.363 198.438,350.000 198.438 L 345.703 198.438 345.703 200.000 L 345.703 201.563 348.242 201.563 L 350.781 201.563 350.781 203.053 C 350.781 207.164,343.440 207.403,340.466 203.389 C 336.215 197.653,344.337 189.078,349.310 194.051 L 350.519 195.261 352.424 194.295 L 354.329 193.330 353.489 192.150 C 351.299 189.075,346.742 187.685,342.554 188.814 M213.671 199.414 L 213.670 209.961 215.722 209.961 L 217.773 209.961 217.969 202.946 L 218.164 195.932 222.703 202.893 L 227.242 209.855 229.442 209.908 L 231.641 209.961 231.641 199.291 L 231.641 188.621 229.472 188.781 L 227.303 188.942 227.292 195.448 C 227.287 199.026,227.164 201.945,227.020 201.936 C 226.876 201.926,224.809 198.987,222.427 195.405 L 218.097 188.892 215.885 188.880 L 213.672 188.867 213.671 199.414 M253.713 189.063 C 253.410 189.551,253.543 201.214,253.875 203.193 C 254.657 207.862,257.480 210.178,262.447 210.224 C 269.688 210.292,271.631 206.929,271.400 194.727 L 271.289 188.867 269.043 188.846 L 266.797 188.825 266.797 195.597 C 266.797 204.257,265.976 206.254,262.422 206.249 C 258.971 206.243,258.203 204.323,258.203 195.694 L 258.203 188.704 256.019 188.786 C 254.818 188.830,253.780 188.955,253.713 189.063 M275.000 199.219 L 275.000 209.766 281.641 209.766 C 285.293 209.766,288.413 209.768,288.574 209.771 C 288.735 209.774,288.920 208.895,288.985 207.818 L 289.103 205.859 284.395 205.859 L 279.688 205.859 279.688 197.266 L 279.688 188.672 277.344 188.672 L 275.000 188.672 275.000 199.219 M287.109 190.807 L 287.109 192.969 290.031 192.969 L 292.954 192.969 293.059 201.402 L 293.164 209.835 295.410 209.898 L 297.656 209.962 297.656 201.465 L 297.656 192.969 300.391 192.969 L 303.125 192.969 303.125 190.849 L 303.125 188.730 295.117 188.688 L 287.109 188.645 287.109 190.807 M305.859 199.297 L 305.859 209.961 308.021 209.908 L 310.183 209.856 310.185 199.361 L 310.186 188.867 308.023 188.750 L 305.859 188.633 305.859 199.297 M314.063 199.368 L 314.063 209.961 316.211 209.961 L 318.359 209.961 318.359 203.418 C 318.359 199.819,318.491 196.880,318.652 196.885 C 318.813 196.891,320.894 199.835,323.276 203.428 L 327.606 209.961 329.819 209.961 L 332.031 209.961 332.031 199.285 L 332.031 188.609 329.785 188.738 L 327.539 188.867 327.539 195.410 C 327.539 199.009,327.451 201.952,327.344 201.950 C 327.236 201.947,325.174 198.960,322.761 195.310 L 318.373 188.675 316.218 188.725 L 314.063 188.775 314.063 199.368 M130.193 191.486 C 127.683 192.136,126.816 195.601,128.693 197.479 C 130.986 199.771,134.943 198.152,134.943 194.922 C 134.943 192.287,132.875 190.791,130.193 191.486 M202.738 193.457 C 208.326 197.260,206.131 206.252,199.615 206.249 C 195.099 206.248,192.270 202.289,193.354 197.486 C 194.305 193.266,199.304 191.120,202.738 193.457 M123.309 212.908 C 121.976 213.956,121.609 215.930,122.445 217.547 C 123.598 219.777,126.360 220.184,128.155 218.389 C 131.404 215.140,126.920 210.067,123.309 212.908 M177.832 221.776 C 174.155 221.892,173.828 221.965,173.828 222.670 C 173.828 223.305,174.098 223.438,175.391 223.438 L 176.953 223.438 176.953 228.125 L 176.953 232.813 177.930 232.813 L 178.906 232.813 178.906 228.125 L 178.906 223.438 180.469 223.438 C 181.875 223.438,182.031 223.340,182.031 222.461 C 182.031 221.924,181.987 221.521,181.934 221.567 C 181.880 221.612,180.034 221.706,177.832 221.776 M194.148 222.169 C 189.909 224.299,189.913 230.880,194.156 232.578 C 198.572 234.345,202.148 232.003,202.148 227.344 C 202.148 222.694,198.194 220.136,194.148 222.169 M206.934 221.799 C 205.627 222.054,205.947 230.117,207.324 231.659 C 209.283 233.851,213.465 233.400,214.735 230.859 C 215.602 229.124,215.404 221.875,214.490 221.875 C 213.815 221.875,213.732 222.247,213.611 225.816 C 213.457 230.321,212.442 231.997,210.199 231.448 C 208.292 230.981,208.022 230.347,207.813 225.859 C 207.639 222.133,207.541 221.681,206.934 221.799 M218.359 222.559 C 218.359 223.323,218.562 223.438,219.922 223.438 L 221.484 223.438 221.484 228.125 C 221.484 232.726,221.501 232.812,222.363 232.812 C 223.229 232.812,223.241 232.743,223.183 228.125 L 223.125 223.438 224.844 223.438 C 226.283 223.438,226.563 223.315,226.563 222.681 C 226.563 221.989,226.214 221.915,222.460 221.802 C 218.430 221.682,218.358 221.695,218.359 222.559 M231.432 221.835 C 228.110 223.269,228.954 226.447,233.042 227.894 C 234.856 228.536,235.379 228.905,235.479 229.612 C 235.762 231.606,233.085 232.386,231.158 230.871 C 230.185 230.106,230.174 230.106,229.485 230.867 C 228.519 231.935,231.631 233.412,234.139 233.076 C 238.653 232.470,238.560 228.089,234.002 226.603 C 232.835 226.222,231.710 225.642,231.503 225.313 C 230.479 223.691,232.913 222.446,234.889 223.581 C 235.966 224.199,236.062 224.197,236.533 223.554 C 237.491 222.243,233.557 220.918,231.432 221.835 M243.831 222.263 C 239.338 224.302,239.869 231.557,244.604 232.832 C 248.086 233.770,251.576 231.899,252.161 228.781 C 253.143 223.546,248.686 220.059,243.831 222.263 M283.992 222.169 C 278.203 225.077,280.966 234.223,287.276 233.039 C 289.376 232.645,291.323 230.878,290.400 230.203 C 289.797 229.762,289.565 229.813,288.772 230.558 C 285.942 233.217,281.528 229.867,282.797 226.024 C 283.667 223.388,286.760 222.293,288.608 223.966 C 289.574 224.839,291.412 224.190,290.632 223.251 C 289.246 221.581,286.163 221.078,283.992 222.169 M317.708 221.913 C 315.235 222.629,313.687 225.661,314.196 228.794 C 315.099 234.363,324.599 234.554,324.607 229.004 L 324.609 226.953 322.266 226.953 C 320.182 226.953,319.922 227.040,319.922 227.734 C 319.922 228.385,320.182 228.516,321.484 228.516 C 323.264 228.516,323.626 229.433,322.314 230.620 C 320.321 232.424,316.796 231.357,316.071 228.731 C 314.979 224.776,318.470 221.807,321.815 223.846 C 323.342 224.778,324.686 224.276,323.735 223.130 C 322.566 221.720,320.097 221.221,317.708 221.913 M168.750 227.344 C 168.750 232.755,168.759 232.813,169.629 232.813 C 170.499 232.813,170.508 232.755,170.508 227.344 C 170.508 221.933,170.499 221.875,169.629 221.875 C 168.759 221.875,168.750 221.933,168.750 227.344 M199.895 222.990 C 201.692 223.952,202.440 227.375,201.398 229.869 C 200.003 233.209,193.688 233.358,191.999 230.091 C 189.377 225.021,194.717 220.219,199.895 222.990 M234.873 222.289 C 235.684 222.514,236.245 222.865,236.119 223.069 C 235.976 223.301,235.615 223.293,235.158 223.048 C 233.224 222.013,230.859 222.883,230.859 224.629 C 230.859 225.605,231.097 225.894,232.324 226.411 C 236.322 228.094,236.517 228.245,236.642 229.748 C 236.792 231.544,235.704 232.422,233.330 232.422 C 231.521 232.422,229.590 231.723,229.921 231.189 C 230.035 231.003,230.509 231.117,230.972 231.441 C 232.937 232.818,236.328 231.786,236.328 229.811 C 236.328 229.006,234.841 227.880,233.095 227.364 C 230.971 226.736,230.078 225.920,230.078 224.609 C 230.078 223.187,230.977 222.414,233.203 221.922 C 233.311 221.899,234.062 222.064,234.873 222.289 M250.593 223.907 C 254.270 228.277,248.930 234.571,243.788 231.928 C 241.781 230.897,240.295 226.422,241.637 225.452 C 241.832 225.311,241.992 224.951,241.992 224.652 C 241.992 221.996,248.509 221.432,250.593 223.907 M255.926 226.074 C 256.043 229.308,256.243 230.520,256.793 231.345 C 258.412 233.771,262.937 233.645,264.470 231.131 C 265.592 229.291,265.615 221.875,264.499 221.875 C 263.837 221.875,263.747 222.273,263.604 225.829 C 263.423 230.341,262.429 231.983,260.199 231.457 C 258.235 230.994,257.813 229.981,257.813 225.738 L 257.813 221.875 256.793 221.875 L 255.773 221.875 255.926 226.074 M269.531 227.344 L 269.531 232.813 270.508 232.813 C 271.431 232.813,271.484 232.695,271.484 230.664 C 271.484 227.903,272.011 227.904,273.994 230.672 C 275.241 232.412,275.737 232.813,276.649 232.813 L 277.770 232.813 276.207 230.763 L 274.645 228.714 275.594 228.217 C 279.513 226.163,277.407 221.875,272.479 221.875 L 269.531 221.875 269.531 227.344 M294.922 227.344 C 294.922 232.755,294.931 232.813,295.801 232.813 C 296.670 232.813,296.680 232.755,296.680 227.345 C 296.680 221.934,296.670 221.876,295.801 221.876 C 294.931 221.875,294.922 221.933,294.922 227.344 M301.095 227.344 C 300.978 232.767,300.984 232.814,301.842 232.813 C 302.674 232.813,302.712 232.652,302.819 228.704 L 302.930 224.596 305.664 228.695 C 309.689 234.730,310.156 234.590,310.156 227.344 C 310.156 222.167,310.115 221.875,309.388 221.875 C 308.679 221.875,308.612 222.197,308.509 226.047 L 308.398 230.220 305.664 226.054 C 301.682 219.989,301.251 220.110,301.095 227.344 M169.922 227.344 C 169.922 230.137,169.764 232.422,169.572 232.422 C 169.379 232.422,169.196 230.137,169.164 227.344 C 169.126 224.039,169.249 222.266,169.514 222.266 C 169.776 222.266,169.922 224.076,169.922 227.344 M181.641 222.578 C 181.641 222.750,181.046 222.821,180.320 222.736 C 178.576 222.532,178.557 222.584,178.490 227.866 C 178.458 230.372,178.275 232.422,178.083 232.422 C 177.891 232.422,177.734 230.422,177.734 227.978 C 177.734 223.086,177.621 222.825,175.389 222.555 C 174.638 222.465,175.737 222.363,177.832 222.328 C 179.927 222.294,181.641 222.406,181.641 222.578 M207.422 226.115 C 207.422 230.513,208.219 232.071,210.431 231.992 C 211.500 231.954,213.784 231.366,213.161 231.289 C 212.988 231.268,213.120 230.859,213.454 230.382 C 213.899 229.748,214.063 228.537,214.063 225.890 C 214.063 223.488,214.209 222.266,214.497 222.266 C 215.501 222.266,214.738 230.362,213.630 231.470 C 211.910 233.190,208.249 232.836,207.222 230.851 C 206.545 229.541,206.383 222.266,207.031 222.266 C 207.265 222.266,207.422 223.809,207.422 226.115 M225.002 222.555 C 222.769 222.825,222.656 223.086,222.656 227.978 C 222.656 234.053,221.930 233.767,221.789 227.637 L 221.680 222.852 220.117 222.614 C 219.176 222.471,220.109 222.379,222.461 222.384 C 224.609 222.387,225.753 222.465,225.002 222.555 M257.031 225.605 C 257.031 230.708,258.223 232.351,261.561 231.851 C 262.499 231.710,263.241 231.473,263.211 231.325 C 263.180 231.176,263.359 230.560,263.609 229.955 C 263.858 229.350,264.063 227.373,264.063 225.561 C 264.063 223.395,264.212 222.266,264.499 222.266 C 265.338 222.266,264.751 229.883,263.814 231.142 C 262.297 233.180,257.859 232.792,256.969 230.543 C 256.491 229.336,256.293 222.266,256.737 222.266 C 256.899 222.266,257.031 223.768,257.031 225.605 M275.000 222.679 C 275.000 222.907,275.168 222.989,275.373 222.862 C 275.579 222.735,276.034 223.069,276.385 223.604 C 277.283 224.975,276.808 226.850,275.353 227.678 C 273.916 228.496,273.930 228.669,275.612 230.721 C 276.513 231.821,276.806 232.422,276.441 232.422 C 276.131 232.422,275.658 232.158,275.391 231.836 C 275.123 231.514,274.996 231.250,275.109 231.250 C 275.221 231.250,274.804 230.705,274.182 230.038 C 273.559 229.372,273.164 228.642,273.304 228.416 C 273.447 228.184,273.373 228.119,273.134 228.266 C 272.901 228.410,272.600 228.349,272.464 228.130 C 271.761 226.993,270.631 228.570,270.765 230.502 C 270.842 231.611,270.733 232.422,270.508 232.422 C 270.267 232.422,270.117 230.469,270.117 227.344 L 270.117 222.266 272.559 222.266 C 274.016 222.266,275.000 222.432,275.000 222.679 M289.373 222.878 C 289.854 223.215,290.147 223.653,290.025 223.851 C 289.902 224.049,289.296 223.837,288.678 223.380 C 286.224 221.566,282.740 223.071,282.217 226.172 C 282.090 226.924,281.894 227.978,281.782 228.515 C 281.669 229.051,281.708 229.360,281.868 229.200 C 282.028 229.040,282.482 229.440,282.876 230.089 C 284.111 232.119,286.988 232.658,288.835 231.205 C 289.880 230.384,290.560 230.408,290.040 231.248 C 288.709 233.403,283.149 232.618,281.843 230.091 C 279.404 225.375,285.120 219.899,289.373 222.878 M296.094 227.344 C 296.094 230.137,295.962 232.422,295.801 232.422 C 295.640 232.422,295.508 230.137,295.508 227.344 C 295.508 224.551,295.640 222.266,295.801 222.266 C 295.962 222.266,296.094 224.551,296.094 227.344 M305.273 226.363 C 308.575 231.298,308.759 231.292,308.900 226.238 C 309.064 220.385,309.766 221.281,309.766 227.344 C 309.766 233.644,309.637 233.678,306.055 228.331 C 302.749 223.397,302.569 223.403,302.428 228.450 C 302.264 234.303,301.563 233.406,301.563 227.344 C 301.563 221.043,301.692 221.009,305.273 226.363 M322.576 222.878 C 323.057 223.215,323.347 223.658,323.221 223.862 C 323.094 224.068,322.547 223.882,321.990 223.444 C 318.758 220.902,314.311 224.673,315.573 228.887 C 316.259 231.175,317.891 232.196,320.391 231.899 C 323.205 231.566,324.723 228.966,322.570 228.169 C 321.772 227.874,321.803 227.834,322.960 227.664 C 324.213 227.480,324.219 227.487,324.219 229.175 C 324.219 233.959,315.591 233.510,314.630 228.675 C 313.731 224.158,318.958 220.345,322.576 222.878 M194.305 223.370 C 192.770 224.335,192.026 226.104,192.348 228.019 C 192.484 228.829,192.630 229.791,192.671 230.157 C 192.712 230.523,192.820 230.748,192.911 230.657 C 193.002 230.566,193.562 230.838,194.157 231.262 C 195.310 232.083,198.211 232.324,198.637 231.634 C 198.772 231.416,199.017 231.321,199.183 231.423 C 199.893 231.862,201.213 228.537,201.095 226.603 C 201.031 225.541,200.916 224.735,200.839 224.812 C 200.763 224.888,200.318 224.505,199.849 223.960 C 198.681 222.602,195.983 222.315,194.305 223.370 M244.305 223.103 C 240.450 224.974,242.119 232.031,246.415 232.031 C 249.966 232.031,252.734 226.104,249.979 224.401 C 249.769 224.271,249.716 223.957,249.861 223.703 C 250.006 223.450,249.986 223.368,249.816 223.521 C 249.646 223.675,249.139 223.543,248.690 223.228 C 247.763 222.579,245.517 222.515,244.305 223.103 M271.191 223.093 C 270.602 223.698,270.542 226.636,271.108 227.202 C 271.357 227.451,272.219 227.497,273.354 227.323 C 274.367 227.167,275.298 227.100,275.423 227.174 C 275.698 227.337,275.798 226.850,275.899 224.842 C 275.982 223.204,276.082 223.276,273.047 222.804 C 272.192 222.672,271.497 222.780,271.191 223.093 M199.550 224.373 C 201.442 226.264,200.602 230.353,198.128 231.293 C 194.661 232.611,191.549 228.923,193.230 225.490 C 194.502 222.892,197.534 222.356,199.550 224.373 M248.227 223.652 C 251.937 225.412,250.578 231.641,246.484 231.641 C 242.430 231.641,241.017 225.204,244.717 223.592 C 246.260 222.920,246.700 222.927,248.227 223.652 M275.542 224.712 C 275.431 226.319,274.712 226.953,272.999 226.953 L 271.484 226.953 271.484 225.173 L 271.484 223.393 273.551 223.506 C 275.548 223.616,275.616 223.656,275.542 224.712 " stroke="none" fill="#074178" fill-rule="evenodd"></path><path id="path1" d="M0.000 200.000 L 0.000 400.000 200.000 400.000 L 400.000 400.000 400.000 200.000 L 400.000 0.000 200.000 0.000 L 0.000 0.000 0.000 200.000 M141.096 145.227 C 144.263 146.786,146.862 149.534,148.124 152.656 L 149.023 154.883 149.023 190.633 L 149.023 226.384 147.742 228.987 C 146.183 232.153,143.435 234.753,140.313 236.014 L 138.086 236.914 101.806 237.022 C 61.513 237.141,62.704 237.208,58.726 234.575 C 56.353 233.005,55.119 231.486,53.629 228.304 L 52.539 225.977 52.539 190.234 L 52.539 154.492 53.578 152.275 C 54.841 149.581,57.419 146.703,59.553 145.606 C 63.172 143.744,62.073 143.790,101.376 143.870 L 138.494 143.945 141.096 145.227 M178.856 157.833 C 181.296 165.149,183.369 171.058,183.463 170.964 C 183.625 170.802,192.578 144.977,192.578 144.673 C 192.578 144.595,194.443 144.531,196.721 144.531 C 199.872 144.531,200.821 144.648,200.684 145.020 C 200.584 145.288,197.727 153.286,194.334 162.793 L 188.165 180.078 183.400 180.078 L 178.636 180.078 172.521 162.598 C 169.158 152.983,166.406 144.985,166.406 144.824 C 166.406 144.663,168.209 144.531,170.413 144.531 L 174.420 144.531 178.856 157.833 M218.750 144.677 C 218.750 144.840,230.162 176.283,231.071 178.627 L 231.645 180.105 227.482 179.994 L 223.319 179.883 222.793 178.320 C 222.504 177.461,221.989 176.011,221.648 175.098 L 221.029 173.438 214.445 173.438 L 207.861 173.438 206.780 176.758 L 205.698 180.078 201.636 180.078 C 198.554 180.078,197.614 179.960,197.745 179.590 C 197.839 179.321,200.714 171.326,204.134 161.822 L 210.352 144.542 214.551 144.537 C 216.860 144.534,218.750 144.597,218.750 144.677 M214.390 153.320 C 214.262 153.535,213.251 156.568,212.144 160.061 C 211.036 163.554,210.046 166.630,209.943 166.897 C 209.801 167.268,210.868 167.383,214.448 167.383 C 217.335 167.383,219.128 167.233,219.110 166.992 C 219.021 165.837,214.587 152.991,214.390 153.320 M128.320 159.447 C 127.891 159.689,119.511 167.989,109.699 177.892 L 91.859 195.898 82.094 186.168 L 72.329 176.437 70.212 176.261 C 67.663 176.050,65.562 177.527,64.802 180.064 C 63.983 182.798,64.407 183.358,77.053 196.238 C 89.763 209.182,90.077 209.423,93.093 208.558 C 94.442 208.171,134.314 168.718,135.377 166.719 C 137.752 162.251,132.663 157.007,128.320 159.447 M128.202 188.723 C 126.599 189.517,124.609 191.810,124.609 192.864 C 124.609 193.171,124.083 193.359,123.230 193.359 C 120.662 193.359,119.356 194.433,107.813 206.030 L 96.289 217.607 93.873 217.355 C 89.165 216.862,87.342 222.269,91.614 224.054 C 93.524 224.852,94.648 224.271,97.779 220.874 L 100.456 217.969 109.537 217.969 L 118.619 217.969 119.563 219.421 C 123.573 225.588,132.422 223.110,132.422 215.820 C 132.422 208.202,122.818 205.934,119.531 212.775 L 118.555 214.808 111.621 214.826 C 107.808 214.836,104.688 214.710,104.688 214.548 C 104.688 214.385,108.600 210.342,113.382 205.563 C 122.718 196.235,124.040 195.343,124.966 197.754 C 126.743 202.378,133.220 203.339,136.608 199.481 C 141.560 193.841,134.951 185.383,128.202 188.723 M182.293 189.507 C 183.277 190.015,184.689 191.167,185.432 192.067 L 186.782 193.705 184.784 194.717 L 182.785 195.730 181.809 194.571 C 176.912 188.751,168.974 195.797,172.263 203.044 C 174.084 207.058,181.155 207.120,182.484 203.134 C 182.633 202.686,183.110 202.844,184.706 203.868 C 186.924 205.292,186.922 205.174,184.785 207.555 C 179.694 213.229,169.001 210.219,167.157 202.593 C 164.801 192.850,173.759 185.105,182.293 189.507 M202.960 188.854 C 213.202 191.896,213.060 207.027,202.761 210.026 C 195.403 212.168,188.666 207.184,188.587 199.540 C 188.504 191.582,195.252 186.565,202.960 188.854 M247.668 189.448 C 250.581 190.917,250.600 190.963,248.989 192.613 L 247.551 194.086 246.145 193.332 C 243.352 191.835,239.844 192.505,239.844 194.535 C 239.844 195.857,240.489 196.275,244.642 197.639 C 252.411 200.192,253.013 208.182,245.588 210.189 C 241.104 211.401,233.653 208.489,235.287 206.162 C 237.066 203.628,236.889 203.687,238.837 204.977 C 241.945 207.036,245.301 206.968,246.113 204.831 C 246.696 203.298,245.445 202.191,241.728 200.954 C 235.988 199.042,233.850 195.728,235.840 191.825 C 237.591 188.391,243.296 187.245,247.668 189.448 M350.232 189.372 C 351.863 190.204,354.453 192.797,354.142 193.285 C 354.047 193.433,353.174 193.985,352.201 194.512 L 350.431 195.469 349.609 194.424 C 346.002 189.838,338.835 194.135,339.581 200.437 C 340.287 206.397,350.147 208.831,350.708 203.184 L 350.831 201.953 348.267 201.953 L 345.703 201.953 345.703 200.000 L 345.703 198.047 350.391 198.047 L 355.078 198.047 355.078 201.934 L 355.078 205.822 353.613 207.262 C 349.175 211.626,340.716 211.410,337.304 206.846 C 330.147 197.271,339.896 184.094,350.232 189.372 M222.461 195.188 L 226.758 201.687 226.865 195.180 L 226.972 188.672 229.306 188.672 L 231.641 188.672 231.641 199.414 L 231.641 210.156 229.504 210.156 L 227.368 210.156 222.879 203.320 C 220.410 199.561,218.339 196.484,218.277 196.484 C 218.215 196.484,218.219 199.560,218.287 203.320 L 218.410 210.156 216.041 210.156 L 213.672 210.156 213.672 199.414 L 213.672 188.672 215.918 188.680 L 218.164 188.689 222.461 195.188 M258.204 195.605 C 258.204 203.870,258.520 204.941,261.207 205.791 C 262.641 206.245,263.017 206.227,264.248 205.643 C 266.458 204.594,266.591 204.075,266.698 196.094 L 266.794 188.867 269.174 188.750 L 271.554 188.633 271.416 196.562 C 271.215 208.045,268.882 211.265,261.397 210.387 C 255.039 209.641,253.771 207.400,253.583 196.582 L 253.446 188.672 255.825 188.672 L 258.203 188.672 258.204 195.605 M279.688 197.266 L 279.688 205.859 284.375 205.859 L 289.063 205.859 289.063 208.008 L 289.063 210.156 282.031 210.156 L 275.000 210.156 275.000 199.414 L 275.000 188.672 277.344 188.672 L 279.688 188.672 279.688 197.266 M303.187 190.821 L 303.320 192.970 300.488 192.969 L 297.656 192.969 297.656 201.563 L 297.656 210.156 295.313 210.156 L 292.969 210.156 292.969 201.563 L 292.969 192.969 290.039 192.969 L 287.109 192.969 287.109 190.820 L 287.109 188.672 295.081 188.672 L 303.053 188.672 303.187 190.821 M310.547 199.414 L 310.547 210.156 308.203 210.156 L 305.859 210.156 305.859 199.414 L 305.859 188.672 308.203 188.672 L 310.547 188.672 310.547 199.414 M322.949 195.376 L 327.344 202.072 327.344 195.372 L 327.344 188.672 329.688 188.672 L 332.031 188.672 332.031 199.414 L 332.031 210.156 329.785 210.150 L 327.539 210.143 323.145 203.478 L 318.750 196.813 318.750 203.485 L 318.750 210.156 316.406 210.156 L 314.063 210.156 314.063 199.414 L 314.063 188.672 316.309 188.676 L 318.555 188.680 322.949 195.376 M133.828 192.344 C 135.647 194.163,135.633 195.695,133.779 197.549 C 130.571 200.757,125.766 196.617,128.267 192.800 C 129.662 190.671,131.967 190.482,133.828 192.344 M196.650 193.345 C 192.097 195.662,192.170 203.514,196.763 205.546 C 200.183 207.059,203.316 205.984,204.980 202.726 C 208.005 196.807,202.353 190.442,196.650 193.345 M128.095 213.121 C 129.096 213.963,129.297 214.415,129.297 215.820 C 129.297 219.188,125.407 220.780,123.017 218.389 C 119.601 214.973,124.391 210.004,128.095 213.121 M170.703 227.344 L 170.703 233.203 169.727 233.203 L 168.750 233.203 168.750 227.344 L 168.750 221.484 169.727 221.484 L 170.703 221.484 170.703 227.344 M182.422 222.461 C 182.422 223.358,182.279 223.438,180.664 223.438 L 178.906 223.438 178.906 228.320 L 178.906 233.203 177.930 233.203 L 176.953 233.203 176.953 228.320 L 176.953 223.438 175.391 223.438 C 173.984 223.438,173.828 223.340,173.828 222.461 L 173.828 221.484 178.125 221.484 L 182.422 221.484 182.422 222.461 M199.615 222.197 C 203.642 224.305,203.486 230.941,199.369 232.661 C 193.850 234.967,188.839 229.947,191.460 224.738 C 192.994 221.690,196.538 220.586,199.615 222.197 M207.875 225.546 C 208.026 230.154,208.564 231.250,210.674 231.250 C 212.911 231.250,213.281 230.461,213.281 225.695 L 213.281 221.432 214.270 221.556 C 214.814 221.624,215.253 221.812,215.247 221.973 C 215.240 222.134,215.234 224.129,215.234 226.406 L 215.234 230.547 213.906 231.875 C 212.833 232.948,212.275 233.203,210.995 233.203 C 207.111 233.203,206.126 231.781,205.925 225.879 L 205.775 221.484 206.758 221.484 C 207.737 221.484,207.742 221.502,207.875 225.546 M226.563 222.461 C 226.563 223.340,226.406 223.438,225.000 223.438 L 223.438 223.438 223.438 228.346 L 223.438 233.255 222.413 233.131 L 221.388 233.008 221.456 228.223 L 221.525 223.438 219.747 223.438 C 218.111 223.438,217.969 223.360,217.969 222.461 L 217.969 221.484 222.266 221.484 L 226.563 221.484 226.563 222.461 M235.957 222.080 C 237.244 222.746,237.373 223.123,236.548 223.807 C 236.114 224.168,235.788 224.166,235.100 223.798 C 234.063 223.243,232.088 223.224,231.548 223.764 C 230.735 224.577,231.666 225.776,233.461 226.228 C 237.424 227.226,238.765 230.116,236.249 232.234 C 234.074 234.063,227.755 232.779,229.491 230.861 C 230.122 230.164,230.183 230.166,231.497 230.942 C 233.738 232.264,236.610 230.854,235.182 229.133 C 234.946 228.848,233.703 228.233,232.419 227.765 C 230.026 226.892,229.287 226.126,229.309 224.537 C 229.344 221.981,233.089 220.597,235.957 222.080 M249.140 222.033 C 254.640 224.895,252.665 233.203,246.484 233.203 C 240.333 233.203,238.286 224.918,243.758 222.169 C 245.398 221.344,247.705 221.286,249.140 222.033 M257.813 225.586 C 257.813 230.210,258.315 231.250,260.547 231.250 C 262.779 231.250,263.281 230.210,263.281 225.586 L 263.281 221.484 264.258 221.484 L 265.234 221.484 265.234 226.016 L 265.234 230.547 263.906 231.875 C 262.071 233.710,259.265 233.791,257.330 232.064 L 256.055 230.925 255.924 226.205 L 255.794 221.484 256.803 221.484 L 257.813 221.484 257.813 225.586 M276.342 222.633 C 278.129 224.312,277.237 228.516,275.094 228.516 C 274.755 228.516,275.158 229.288,276.139 230.520 C 278.023 232.886,278.086 233.210,276.660 233.182 C 275.805 233.165,275.248 232.688,273.930 230.838 C 271.850 227.921,271.484 227.925,271.484 230.859 C 271.484 233.099,271.441 233.203,270.508 233.203 L 269.531 233.203 269.531 227.301 L 269.531 221.399 272.436 221.546 C 274.849 221.667,275.511 221.852,276.342 222.633 M289.463 222.363 C 291.094 223.468,291.268 223.987,290.175 224.474 C 289.506 224.773,289.153 224.700,288.602 224.148 C 287.231 222.778,284.291 223.273,283.384 225.028 C 281.262 229.132,285.620 233.520,288.731 230.410 C 289.619 229.522,290.820 229.796,290.820 230.886 C 290.820 234.198,282.969 233.683,281.257 230.259 C 278.604 224.953,284.670 219.116,289.463 222.363 M296.875 227.344 L 296.875 233.203 295.898 233.203 L 294.922 233.203 294.922 227.344 L 294.922 221.484 295.898 221.484 L 296.875 221.484 296.875 227.344 M305.487 225.586 C 308.873 230.561,308.655 230.554,308.562 225.684 L 308.485 221.680 309.527 221.555 L 310.568 221.430 310.460 227.219 C 310.315 234.946,309.939 235.095,305.800 229.066 L 302.930 224.885 302.819 229.044 C 302.709 233.175,302.701 233.203,301.745 233.203 L 300.781 233.203 300.781 227.344 L 300.781 221.484 301.738 221.484 C 302.516 221.484,303.219 222.254,305.487 225.586 M323.350 222.782 C 324.757 224.189,323.498 225.548,322.045 224.191 C 319.105 221.445,314.515 225.750,316.470 229.420 C 317.801 231.919,322.656 231.965,322.656 229.478 C 322.656 228.638,322.482 228.516,321.289 228.516 C 320.182 228.516,319.922 228.367,319.922 227.734 C 319.922 227.040,320.182 226.953,322.266 226.953 L 324.609 226.953 324.609 229.075 C 324.609 234.833,315.310 234.589,314.084 228.799 C 312.936 223.377,319.611 219.043,323.350 222.782 M193.928 224.396 C 191.438 226.886,193.191 231.250,196.680 231.250 C 199.243 231.250,200.391 230.042,200.391 227.344 C 200.391 224.645,199.243 223.438,196.680 223.438 C 195.296 223.438,194.667 223.657,193.928 224.396 M243.869 224.381 C 242.294 225.736,242.311 228.966,243.899 230.333 C 246.618 232.672,250.195 230.936,250.195 227.278 C 250.195 223.782,246.521 222.099,243.869 224.381 M271.484 225.195 C 271.484 227.090,272.672 227.600,274.635 226.549 C 276.474 225.565,275.138 223.438,272.682 223.438 C 271.523 223.438,271.484 223.494,271.484 225.195 " stroke="none" fill="#fbfbfb" fill-rule="evenodd"></path><path id="path2" d="M212.612 167.477 C 213.855 167.554,215.789 167.554,216.909 167.475 C 218.029 167.396,217.012 167.333,214.648 167.334 C 212.285 167.335,211.369 167.399,212.612 167.477 M114.446 172.949 L 110.352 177.148 114.551 173.054 C 118.451 169.251,118.927 168.750,118.645 168.750 C 118.588 168.750,116.698 170.640,114.446 172.949 M69.727 189.063 C 71.219 190.566,72.528 191.797,72.635 191.797 C 72.743 191.797,71.610 190.566,70.117 189.063 C 68.625 187.559,67.316 186.328,67.208 186.328 C 67.101 186.328,68.234 187.559,69.727 189.063 M218.127 203.320 C 218.127 206.758,218.187 208.112,218.260 206.329 C 218.332 204.546,218.332 201.734,218.259 200.079 C 218.186 198.424,218.126 199.883,218.127 203.320 M100.177 213.379 L 98.633 215.039 100.293 213.495 C 101.837 212.059,102.133 211.719,101.837 211.719 C 101.773 211.719,101.026 212.466,100.177 213.379 M213.418 225.391 C 213.418 227.217,213.485 227.964,213.567 227.051 C 213.650 226.138,213.650 224.644,213.567 223.730 C 213.485 222.817,213.418 223.564,213.418 225.391 M310.309 227.344 C 310.309 230.244,310.371 231.431,310.446 229.980 C 310.521 228.530,310.521 226.157,310.446 224.707 C 310.371 223.257,310.309 224.443,310.309 227.344 " stroke="none" fill="#99b9cc" fill-rule="evenodd"></path><path id="path3" d="M94.708 192.676 L 93.164 194.336 94.824 192.792 C 96.368 191.356,96.664 191.016,96.368 191.016 C 96.305 191.016,95.557 191.763,94.708 192.676 M227.084 197.266 C 227.084 198.877,227.153 199.536,227.238 198.730 C 227.322 197.925,227.322 196.606,227.238 195.801 C 227.153 194.995,227.084 195.654,227.084 197.266 M318.518 203.516 C 318.518 207.061,318.578 208.511,318.650 206.738 C 318.722 204.966,318.722 202.065,318.650 200.293 C 318.578 198.521,318.518 199.971,318.518 203.516 M347.754 198.336 C 348.989 198.413,351.011 198.413,352.246 198.336 C 353.481 198.258,352.471 198.195,350.000 198.195 C 347.529 198.195,346.519 198.258,347.754 198.336 M281.144 210.048 C 281.837 210.134,283.068 210.135,283.878 210.051 C 284.688 209.966,284.121 209.896,282.617 209.894 C 281.113 209.892,280.450 209.961,281.144 210.048 M328.813 210.042 C 329.299 210.135,330.002 210.132,330.376 210.034 C 330.749 209.936,330.352 209.860,329.492 209.864 C 328.633 209.868,328.327 209.948,328.813 210.042 M109.101 214.744 C 110.992 214.816,113.980 214.816,115.742 214.743 C 117.504 214.671,115.957 214.613,112.305 214.613 C 108.652 214.613,107.211 214.672,109.101 214.744 M175.684 221.772 C 176.812 221.851,178.657 221.851,179.785 221.772 C 180.913 221.693,179.990 221.629,177.734 221.629 C 175.479 221.629,174.556 221.693,175.684 221.772 M206.026 222.005 C 205.916 222.292,205.885 224.006,205.958 225.814 L 206.091 229.102 206.170 225.517 C 206.238 222.472,206.353 221.905,206.934 221.754 C 207.574 221.586,207.573 221.572,206.921 221.530 C 206.539 221.505,206.136 221.719,206.026 222.005 M220.605 221.772 C 221.733 221.851,223.579 221.851,224.707 221.772 C 225.835 221.693,224.912 221.629,222.656 221.629 C 220.400 221.629,219.478 221.693,220.605 221.772 M263.447 222.007 C 263.336 222.295,263.307 223.921,263.380 225.620 L 263.515 228.711 263.593 225.320 C 263.667 222.144,263.727 221.919,264.551 221.760 L 265.430 221.591 264.539 221.538 C 264.048 221.508,263.557 221.720,263.447 222.007 M270.605 221.767 C 271.304 221.854,272.446 221.854,273.145 221.767 C 273.843 221.680,273.271 221.609,271.875 221.609 C 270.479 221.609,269.907 221.680,270.605 221.767 M300.952 221.993 C 300.845 222.273,300.812 224.778,300.879 227.560 L 301.002 232.617 301.087 227.273 C 301.170 222.073,301.196 221.925,302.051 221.760 L 302.930 221.591 302.039 221.538 C 301.548 221.508,301.059 221.713,300.952 221.993 M195.116 222.482 C 194.042 222.755,192.996 222.950,192.792 222.915 C 192.587 222.880,192.411 223.203,192.401 223.633 C 192.391 224.063,192.199 224.382,191.974 224.343 C 191.717 224.298,191.597 225.237,191.651 226.882 C 191.754 230.048,191.897 231.211,192.174 231.142 C 192.289 231.113,192.975 231.404,193.698 231.789 C 194.667 232.305,195.540 232.436,197.018 232.287 C 200.927 231.895,201.235 231.774,201.422 230.558 C 201.958 227.090,201.973 226.255,201.520 225.195 C 201.245 224.551,201.009 223.774,200.996 223.470 C 200.984 223.165,200.622 222.875,200.194 222.824 C 199.765 222.773,198.886 222.564,198.241 222.358 C 197.432 222.101,196.460 222.139,195.116 222.482 M232.227 222.152 C 228.840 222.993,229.389 226.086,233.154 227.377 C 234.148 227.718,234.961 228.187,234.961 228.419 C 234.961 228.651,235.121 228.988,235.317 229.167 C 235.523 229.356,235.554 229.288,235.391 229.004 C 235.237 228.735,235.284 228.516,235.497 228.516 C 236.236 228.516,236.402 230.102,235.766 231.074 C 235.019 232.213,232.365 232.417,230.972 231.441 C 230.509 231.117,230.035 231.003,229.921 231.189 C 229.590 231.723,231.521 232.422,233.330 232.422 C 237.948 232.422,238.068 228.164,233.484 226.925 C 232.672 226.706,232.099 226.378,232.211 226.198 C 232.322 226.017,232.108 225.894,231.734 225.923 C 230.754 226.000,230.560 223.841,231.486 223.164 C 232.308 222.563,234.136 222.501,235.141 223.039 C 235.642 223.307,235.978 223.274,236.265 222.927 C 236.568 222.562,236.502 222.429,236.014 222.418 C 235.649 222.409,234.824 222.303,234.180 222.180 C 233.535 222.058,232.656 222.046,232.227 222.152 M245.420 222.288 C 244.727 222.434,243.672 222.879,243.076 223.278 C 242.480 223.676,241.853 223.960,241.682 223.909 C 241.512 223.859,241.555 224.157,241.777 224.572 C 242.066 225.113,242.053 225.370,241.731 225.478 C 240.979 225.728,241.239 229.276,242.093 230.427 C 243.935 232.909,248.079 233.249,250.234 231.094 C 253.906 227.422,250.513 221.216,245.420 222.288 M169.164 227.344 C 169.196 230.137,169.379 232.422,169.572 232.422 C 169.764 232.422,169.922 230.137,169.922 227.344 C 169.922 224.076,169.776 222.266,169.514 222.266 C 169.249 222.266,169.126 224.039,169.164 227.344 M170.466 227.344 C 170.466 230.244,170.527 231.431,170.602 229.980 C 170.677 228.530,170.677 226.157,170.602 224.707 C 170.527 223.257,170.466 224.443,170.466 227.344 M175.389 222.555 C 177.621 222.825,177.734 223.086,177.734 227.978 C 177.734 230.422,177.891 232.422,178.083 232.422 C 178.275 232.422,178.458 230.372,178.490 227.866 C 178.557 222.584,178.576 222.532,180.320 222.736 C 181.046 222.821,181.641 222.750,181.641 222.578 C 181.641 222.406,179.927 222.294,177.832 222.328 C 175.737 222.363,174.638 222.465,175.389 222.555 M206.769 226.270 C 207.027 232.049,207.047 232.116,208.623 232.301 C 210.736 232.548,213.233 232.633,213.050 232.451 C 212.958 232.359,213.277 231.866,213.757 231.355 C 214.752 230.295,215.407 222.266,214.497 222.266 C 214.209 222.266,214.063 223.488,214.063 225.890 C 214.063 228.440,213.893 229.756,213.490 230.331 C 213.176 230.780,213.016 231.245,213.136 231.365 C 213.255 231.484,212.566 231.700,211.604 231.844 C 209.643 232.138,208.011 231.533,208.354 230.639 C 208.472 230.332,208.355 230.129,208.091 230.180 C 207.750 230.247,207.586 229.152,207.506 226.270 C 207.439 223.857,207.235 222.266,206.992 222.266 C 206.731 222.266,206.653 223.669,206.769 226.270 M220.117 222.614 L 221.680 222.852 221.789 227.637 C 221.930 233.767,222.656 234.053,222.656 227.978 C 222.656 223.086,222.769 222.825,225.002 222.555 C 225.753 222.465,224.609 222.387,222.461 222.384 C 220.109 222.379,219.176 222.471,220.117 222.614 M256.562 226.074 C 256.707 230.653,256.786 231.626,256.995 231.416 C 257.083 231.328,257.415 231.473,257.734 231.737 C 258.294 232.202,263.278 232.836,263.164 232.428 C 263.133 232.317,263.449 231.715,263.867 231.089 C 264.759 229.752,265.295 222.266,264.499 222.266 C 264.212 222.266,264.063 223.395,264.063 225.561 C 264.063 227.373,263.858 229.350,263.609 229.955 C 263.359 230.560,263.180 231.176,263.211 231.325 C 263.241 231.473,262.499 231.710,261.561 231.851 C 258.223 232.351,257.031 230.708,257.031 225.605 C 257.031 223.768,256.899 222.266,256.737 222.266 C 256.575 222.266,256.496 223.979,256.562 226.074 M270.117 227.344 C 270.117 230.469,270.267 232.422,270.508 232.422 C 270.733 232.422,270.842 231.611,270.765 230.502 C 270.631 228.570,271.761 226.993,272.464 228.130 C 272.600 228.349,272.901 228.410,273.134 228.266 C 273.373 228.119,273.447 228.184,273.304 228.416 C 273.164 228.642,273.551 229.363,274.163 230.018 C 274.990 230.904,275.165 231.329,274.845 231.677 C 274.528 232.022,274.536 232.077,274.875 231.887 C 275.129 231.744,275.447 231.807,275.582 232.025 C 275.951 232.622,276.823 232.502,276.823 231.853 C 276.823 231.540,276.696 231.363,276.542 231.458 C 276.071 231.749,275.303 230.538,275.615 229.998 C 275.775 229.720,275.763 229.622,275.587 229.782 C 275.206 230.127,274.218 229.388,274.221 228.761 C 274.223 228.519,274.732 228.031,275.353 227.678 C 276.808 226.850,277.283 224.975,276.385 223.604 C 276.034 223.069,275.579 222.735,275.373 222.862 C 275.168 222.989,275.000 222.907,275.000 222.679 C 275.000 222.432,274.016 222.266,272.559 222.266 L 270.117 222.266 270.117 227.344 M283.472 223.059 C 278.371 227.071,282.666 234.452,288.729 232.093 C 289.298 231.872,289.844 231.771,289.943 231.870 C 290.042 231.969,290.368 231.748,290.667 231.380 C 290.966 231.011,291.006 230.832,290.756 230.982 C 290.506 231.132,290.230 231.040,290.142 230.778 C 290.034 230.452,289.637 230.575,288.884 231.167 C 286.990 232.657,284.125 232.143,282.876 230.089 C 282.482 229.440,282.028 229.040,281.868 229.200 C 281.708 229.360,281.669 229.051,281.782 228.515 C 281.894 227.978,282.090 226.924,282.217 226.172 C 282.769 222.901,286.449 221.493,288.949 223.597 C 290.088 224.555,290.351 224.390,289.827 223.047 C 289.785 222.939,289.759 222.758,289.769 222.643 C 289.832 221.921,284.468 222.275,283.472 223.059 M295.508 227.344 C 295.508 230.137,295.640 232.422,295.801 232.422 C 295.962 232.422,296.094 230.137,296.094 227.344 C 296.094 224.551,295.962 222.266,295.801 222.266 C 295.640 222.266,295.508 224.551,295.508 227.344 M296.635 226.953 C 296.635 229.639,296.697 230.737,296.774 229.395 C 296.850 228.052,296.850 225.854,296.774 224.512 C 296.697 223.169,296.635 224.268,296.635 226.953 M301.563 227.344 C 301.563 233.406,302.264 234.303,302.428 228.450 C 302.505 225.702,302.690 224.428,303.027 224.316 C 303.296 224.227,303.516 224.354,303.516 224.600 C 303.516 224.845,303.313 224.921,303.065 224.767 C 302.783 224.593,302.720 224.660,302.896 224.946 C 303.052 225.198,303.321 225.315,303.495 225.208 C 303.929 224.940,305.947 228.058,305.650 228.539 C 305.518 228.752,305.643 228.877,305.928 228.818 C 306.214 228.759,306.421 229.015,306.392 229.390 C 306.362 229.764,306.488 229.977,306.671 229.864 C 306.855 229.751,307.406 230.278,307.897 231.035 C 309.485 233.487,309.766 232.933,309.766 227.344 C 309.766 221.281,309.064 220.385,308.900 226.238 C 308.823 228.986,308.639 230.260,308.301 230.372 C 308.032 230.461,307.813 230.333,307.813 230.088 C 307.813 229.841,308.031 229.767,308.301 229.922 C 308.584 230.086,308.653 230.054,308.464 229.848 C 308.285 229.652,307.933 229.488,307.682 229.483 C 307.432 229.478,307.251 229.172,307.280 228.803 C 307.310 228.435,307.185 228.225,307.004 228.337 C 306.546 228.620,305.343 226.691,305.659 226.179 C 305.801 225.950,305.685 225.810,305.400 225.869 C 305.114 225.929,304.907 225.673,304.936 225.297 C 304.966 224.924,304.840 224.710,304.657 224.824 C 304.473 224.937,303.922 224.410,303.431 223.652 C 301.843 221.201,301.563 221.755,301.563 227.344 M316.444 223.271 C 312.195 226.846,315.013 232.957,320.596 232.274 C 324.212 231.832,324.011 231.981,324.149 229.621 L 324.274 227.471 322.988 227.660 C 321.812 227.832,321.776 227.876,322.570 228.169 C 324.803 228.996,323.180 231.603,320.244 231.906 C 317.689 232.169,315.877 230.843,315.413 228.370 C 315.072 226.551,315.966 223.999,316.917 224.077 C 317.276 224.106,317.479 223.983,317.368 223.804 C 317.084 223.345,318.499 222.656,319.727 222.656 C 320.974 222.656,322.368 223.347,322.075 223.821 C 321.705 224.418,322.547 224.626,323.021 224.054 C 324.507 222.264,318.491 221.548,316.444 223.271 M199.639 223.660 C 200.068 224.047,200.320 224.620,200.200 224.933 C 200.037 225.357,200.109 225.396,200.480 225.088 C 200.870 224.764,201.003 225.093,201.095 226.604 C 201.240 228.989,199.848 231.934,198.934 231.176 C 198.515 230.828,198.420 230.851,198.513 231.282 C 198.604 231.702,198.162 231.836,196.680 231.836 C 195.357 231.836,194.757 231.683,194.820 231.362 C 194.871 231.101,194.669 230.981,194.371 231.095 C 194.073 231.210,193.711 231.113,193.567 230.880 C 193.423 230.647,193.179 230.534,193.025 230.629 C 192.175 231.155,192.125 226.023,192.968 224.671 C 193.502 223.815,193.985 223.444,194.372 223.593 C 194.697 223.717,194.864 223.660,194.744 223.466 C 194.095 222.416,198.455 222.588,199.639 223.660 M248.690 223.228 C 249.139 223.543,249.656 223.675,249.838 223.521 C 250.020 223.368,249.926 223.560,249.628 223.948 C 249.175 224.538,249.174 224.634,249.620 224.534 C 250.472 224.343,251.202 227.006,250.748 228.650 C 249.356 233.692,242.188 232.773,242.188 227.552 C 242.188 225.631,242.773 224.052,243.352 224.409 C 243.541 224.526,243.823 224.416,243.979 224.165 C 244.155 223.879,244.092 223.812,243.810 223.986 C 243.562 224.139,243.359 224.106,243.359 223.911 C 243.359 222.788,247.335 222.279,248.690 223.228 M275.195 223.167 C 275.835 223.290,275.963 223.594,275.899 224.842 C 275.776 227.282,275.742 227.350,274.888 226.893 C 274.413 226.639,274.215 226.632,274.365 226.873 C 274.684 227.389,271.584 227.678,271.085 227.179 C 270.537 226.631,270.613 223.686,271.191 223.093 C 271.642 222.631,272.490 222.647,275.195 223.167 M223.190 228.711 C 223.191 230.859,223.256 231.688,223.335 230.553 C 223.414 229.418,223.414 227.660,223.333 226.647 C 223.253 225.634,223.189 226.563,223.190 228.711 " stroke="none" fill="#7c94a9" fill-rule="evenodd"></path><path id="path4" d="M167.871 144.807 C 168.354 144.900,169.146 144.900,169.629 144.807 C 170.112 144.714,169.717 144.638,168.750 144.638 C 167.783 144.638,167.388 144.714,167.871 144.807 M171.782 144.808 C 172.268 144.901,172.971 144.897,173.344 144.800 C 173.718 144.702,173.320 144.625,172.461 144.630 C 171.602 144.634,171.296 144.714,171.782 144.808 M195.031 144.819 C 196.058 144.900,197.640 144.899,198.547 144.817 C 199.454 144.735,198.613 144.669,196.680 144.670 C 194.746 144.671,194.004 144.738,195.031 144.819 M213.585 144.818 C 214.503 144.900,215.910 144.899,216.710 144.815 C 217.510 144.731,216.758 144.664,215.039 144.665 C 213.320 144.667,212.666 144.735,213.585 144.818 M131.036 171.582 L 129.492 173.242 131.152 171.698 C 132.696 170.262,132.992 169.922,132.696 169.922 C 132.633 169.922,131.886 170.669,131.036 171.582 M105.057 182.324 L 103.711 183.789 105.176 182.443 C 105.981 181.703,106.641 181.043,106.641 180.978 C 106.641 180.680,106.310 180.961,105.057 182.324 M114.243 188.379 L 112.305 190.430 114.355 188.491 C 115.483 187.425,116.406 186.502,116.406 186.440 C 116.406 186.149,116.044 186.473,114.243 188.379 M310.263 191.016 C 310.263 191.982,310.339 192.378,310.432 191.895 C 310.525 191.411,310.525 190.620,310.432 190.137 C 310.339 189.653,310.263 190.049,310.263 191.016 M103.121 199.512 L 95.117 207.617 103.223 199.613 C 107.681 195.211,111.328 191.563,111.328 191.507 C 111.328 191.230,110.559 191.980,103.121 199.512 M227.044 193.359 C 227.044 194.111,227.124 194.419,227.222 194.043 C 227.321 193.667,227.321 193.052,227.222 192.676 C 227.124 192.300,227.044 192.607,227.044 193.359 M310.322 201.172 C 310.322 205.791,310.379 207.681,310.448 205.371 C 310.517 203.062,310.517 199.282,310.448 196.973 C 310.379 194.663,310.322 196.553,310.322 201.172 M347.566 201.846 C 348.268 201.933,349.322 201.931,349.909 201.842 C 350.496 201.752,349.922 201.681,348.633 201.684 C 347.344 201.686,346.863 201.759,347.566 201.846 M215.137 210.041 C 215.620 210.134,216.411 210.134,216.895 210.041 C 217.378 209.948,216.982 209.872,216.016 209.872 C 215.049 209.872,214.653 209.948,215.137 210.041 M228.619 210.046 C 229.212 210.136,230.091 210.133,230.572 210.041 C 231.052 209.948,230.566 209.874,229.492 209.877 C 228.418 209.880,228.025 209.956,228.619 210.046 M294.434 210.041 C 294.917 210.134,295.708 210.134,296.191 210.041 C 296.675 209.948,296.279 209.872,295.313 209.872 C 294.346 209.872,293.950 209.948,294.434 210.041 M307.910 210.035 C 308.286 210.133,308.901 210.133,309.277 210.035 C 309.653 209.937,309.346 209.856,308.594 209.856 C 307.842 209.856,307.534 209.937,307.910 210.035 M315.923 210.042 C 316.408 210.135,317.112 210.132,317.485 210.034 C 317.858 209.936,317.461 209.860,316.602 209.864 C 315.742 209.868,315.437 209.948,315.923 210.042 " stroke="none" fill="#6aa5c2" fill-rule="evenodd"></path></g></svg>